<?xml version="1.0" encoding="UTF-8"?>
<svg width="16px" height="20px" viewBox="0 0 16 20" version="1.1" xmlns="http://www.w3.org/2000/svg" xmlns:xlink="http://www.w3.org/1999/xlink">
    <!-- Generator: Sketch 40.3 (33839) - http://www.bohemiancoding.com/sketch -->
    <title>ic_description_black_24px</title>
    <desc>Created with Sketch.</desc>
    <defs></defs>
    <g id="Client-setup" stroke="none" stroke-width="1" fill="none" fill-rule="evenodd">
        <g id="9-storage-4" transform="translate(-91.000000, -367.000000)">
            <g id="Group-2-Copy" transform="translate(0.000000, 353.000000)">
                <g id="ic_description_black_24px" transform="translate(87.000000, 12.000000)">
                    <polygon id="Shape" points="0 0 24 0 24 24 0 24"></polygon>
                    <path d="M14,2 L6,2 C4.9,2 4.01,2.9 4.01,4 L4,20 C4,21.1 4.89,22 5.99,22 L18,22 C19.1,22 20,21.1 20,20 L20,8 L14,2 Z M16,18 L8,18 L8,16 L16,16 L16,18 Z M16,14 L8,14 L8,12 L16,12 L16,14 Z M13,9 L13,3.5 L18.5,9 L13,9 Z" id="Shape" fill="#75787B"></path>
                </g>
            </g>
        </g>
    </g>
</svg>